<svg width="64" height="64" viewBox="0 0 64 64" fill="none" xmlns="http://www.w3.org/2000/svg">
<path fill-rule="evenodd" clip-rule="evenodd" d="M7.05884 50.4266C6.80888 50.1765 6.66846 49.8374 6.66846 49.4839C6.66846 49.1303 6.80888 48.7913 7.05884 48.5412L18.3708 37.2266C18.6209 36.9766 18.96 36.8362 19.3135 36.8362C19.6671 36.8362 20.0061 36.9766 20.2562 37.2266L25.9148 42.8852C26.1648 43.1353 26.3052 43.4743 26.3052 43.8279C26.3052 44.1814 26.1648 44.5205 25.9148 44.7706L14.6002 56.0852C14.3501 56.3352 14.0111 56.4756 13.6575 56.4756C13.304 56.4756 12.9649 56.3352 12.7148 56.0852L7.05884 50.4266ZM9.88551 49.4852L13.6562 53.2559L23.0855 43.8266L19.3148 40.0559L9.88551 49.4852Z" fill="#262522"/>
<path fill-rule="evenodd" clip-rule="evenodd" d="M18.3709 39.1093C18.1209 38.8593 17.9805 38.5202 17.9805 38.1667C17.9805 37.8131 18.1209 37.474 18.3709 37.224L45.2109 10.384C45.7115 9.88407 46.3357 9.52586 47.0199 9.34591C47.7041 9.16596 48.4238 9.1707 49.1056 9.35965C49.7874 9.5486 50.4069 9.91499 50.9009 10.4215C51.3948 10.9279 51.7457 11.5564 51.9175 12.2427L52.3495 13.9707C53.0751 16.8743 53.0364 19.9163 52.2373 22.8006C51.4382 25.6848 49.9059 28.3131 47.7895 30.4293L31.5709 46.6507C31.1994 47.0224 30.7583 47.3172 30.2728 47.5184C29.7874 47.7196 29.267 47.8231 28.7415 47.8231C28.216 47.8231 27.6957 47.7196 27.2102 47.5184C26.7247 47.3172 26.2837 47.0224 25.9122 46.6507L18.3709 39.1093ZM21.1975 38.1653L27.7975 44.7653C28.0476 45.0153 28.3866 45.1557 28.7402 45.1557C29.0937 45.1557 29.4328 45.0153 29.6828 44.7653L45.9042 28.544C47.6952 26.7532 48.992 24.5291 49.6682 22.0883C50.3444 19.6475 50.377 17.0731 49.7628 14.616L49.3309 12.8907C49.2737 12.6619 49.1569 12.4524 48.9924 12.2835C48.8279 12.1147 48.6216 11.9924 48.3945 11.9292C48.1673 11.8661 47.9275 11.8643 47.6994 11.924C47.4713 11.9838 47.2632 12.1029 47.0962 12.2693L21.1975 38.1653Z" fill="#262522"/>
</svg>
