<svg width="64" height="64" viewBox="0 0 64 64" fill="none" xmlns="http://www.w3.org/2000/svg">
<path d="M25.3333 23.9999C24.9797 23.9999 24.6406 23.8594 24.3905 23.6094C24.1405 23.3593 24 23.0202 24 22.6666V14.6666C24 14.313 24.1405 13.9738 24.3905 13.7238C24.6406 13.4737 24.9797 13.3333 25.3333 13.3333C25.687 13.3333 26.0261 13.4737 26.2761 13.7238C26.5262 13.9738 26.6667 14.313 26.6667 14.6666V22.6666C26.6667 23.0202 26.5262 23.3593 26.2761 23.6094C26.0261 23.8594 25.687 23.9999 25.3333 23.9999ZM38.6667 23.9999C38.313 23.9999 37.9739 23.8594 37.7239 23.6094C37.4738 23.3593 37.3333 23.0202 37.3333 22.6666V14.6666C37.3333 14.313 37.4738 13.9738 37.7239 13.7238C37.9739 13.4737 38.313 13.3333 38.6667 13.3333C39.0203 13.3333 39.3594 13.4737 39.6095 13.7238C39.8595 13.9738 40 14.313 40 14.6666V22.6666C40 23.0202 39.8595 23.3593 39.6095 23.6094C39.3594 23.8594 39.0203 23.9999 38.6667 23.9999Z" fill="#262522"/>
<path d="M55.7788 15.9999H7.84277C6.44373 16.0008 5.07994 15.561 3.945 14.743C2.81005 13.9249 1.96161 12.7701 1.5201 11.4426L0.0667706 7.08792C0.00120505 6.88738 -0.0160334 6.67419 0.0164611 6.46573C0.0489555 6.25727 0.130263 6.05944 0.253752 5.88837C0.377241 5.71731 0.539415 5.57785 0.727048 5.48138C0.914681 5.38491 1.12246 5.33415 1.33344 5.33325H62.6668C62.8862 5.33402 63.102 5.38879 63.2952 5.49274C63.4883 5.59669 63.653 5.74662 63.7745 5.92928C63.896 6.11193 63.9706 6.3217 63.9918 6.54005C64.0131 6.75841 63.9802 6.97862 63.8961 7.18125L61.9308 11.9013C61.4258 13.1164 60.5718 14.1545 59.4767 14.8841C58.3816 15.6136 57.0947 16.002 55.7788 15.9999ZM3.18144 7.99992L4.0481 10.5999C4.31388 11.396 4.82335 12.0884 5.50437 12.5789C6.1854 13.0695 7.00347 13.3334 7.84277 13.3333H55.7761C57.3948 13.3333 58.8454 12.3679 59.4694 10.8719L60.6668 7.99992H3.18144ZM52.0001 58.6666H12.0001C11.4323 58.6658 10.8711 58.5442 10.3539 58.31C9.83658 58.0758 9.37502 57.7343 8.99979 57.3081C8.62455 56.8819 8.34422 56.3808 8.17739 55.8381C8.01055 55.2953 7.96103 54.7233 8.0321 54.1599L11.4214 27.1706C11.6263 25.5597 12.4109 24.0786 13.6286 23.0042C14.8462 21.9299 16.4136 21.3358 18.0374 21.3333H45.9628C49.3148 21.3333 52.1574 23.8399 52.5761 27.1679L55.9681 54.1626C56.0388 54.7257 55.9889 55.2975 55.8219 55.8399C55.6549 56.3824 55.3745 56.8831 54.9993 57.309C54.6241 57.7348 54.1627 58.0761 53.6456 58.3102C53.1286 58.5442 52.5677 58.6657 52.0001 58.6666ZM18.0374 23.9999C16.0268 23.9999 14.3201 25.5039 14.0694 27.5013L10.6774 54.4986C10.6668 55.3999 11.2641 55.9999 12.0001 55.9999H52.0001C52.3537 55.9999 52.6929 55.8594 52.9429 55.6094C53.193 55.3593 53.3334 55.0202 53.3334 54.6666L49.9308 27.5013C49.8082 26.5349 49.3377 25.6464 48.6074 25.002C47.877 24.3575 46.9368 24.0013 45.9628 23.9999H18.0374Z" fill="#262522"/>
<path d="M42.6667 45.3333C42.313 45.3333 41.9739 45.1929 41.7239 44.9428C41.4738 44.6928 41.3333 44.3536 41.3333 44C41.3333 38.8533 37.1467 34.6667 32 34.6667C26.8533 34.6667 22.6667 38.8533 22.6667 44C22.6667 44.3536 22.5262 44.6928 22.2761 44.9428C22.0261 45.1929 21.687 45.3333 21.3333 45.3333C20.9797 45.3333 20.6406 45.1929 20.3905 44.9428C20.1405 44.6928 20 44.3536 20 44C20 37.384 25.384 32 32 32C38.616 32 44 37.384 44 44C44 44.3536 43.8595 44.6928 43.6095 44.9428C43.3594 45.1929 43.0203 45.3333 42.6667 45.3333Z" fill="#262522"/>
<path d="M31.9998 47.9999C31.7724 47.9999 31.5488 47.9418 31.3503 47.831C31.1517 47.7202 30.9848 47.5605 30.8653 47.3671C30.7459 47.1736 30.6779 46.9528 30.6678 46.7256C30.6577 46.4985 30.7059 46.2725 30.8078 46.0693L33.4745 40.7359C33.6325 40.4194 33.9098 40.1787 34.2454 40.0667C34.581 39.9547 34.9473 39.9805 35.2638 40.1386C35.5803 40.2967 35.821 40.574 35.933 40.9096C36.0451 41.2451 36.0192 41.6114 35.8611 41.9279L33.1945 47.2613C33.0831 47.4828 32.9124 47.6691 32.7015 47.7995C32.4906 47.9299 32.2477 47.9993 31.9998 47.9999Z" fill="#262522"/>
</svg>
