<svg width="64" height="64" viewBox="0 0 64 64" fill="none" xmlns="http://www.w3.org/2000/svg">
<path fill-rule="evenodd" clip-rule="evenodd" d="M17.4587 46.5441C16.7803 45.8478 15.9704 45.2932 15.076 44.9124C14.1815 44.5317 13.2204 44.3323 12.2483 44.326C11.2762 44.3197 10.3125 44.5065 9.41316 44.8756C8.51383 45.2447 7.69676 45.7887 7.00937 46.4761C6.32198 47.1635 5.77795 47.9805 5.40886 48.8799C5.03977 49.7792 4.85297 50.7429 4.8593 51.715C4.86563 52.6871 5.06496 53.6482 5.44572 54.5427C5.82649 55.4371 6.38111 56.247 7.07739 56.9254C8.46011 58.2726 10.3178 59.0209 12.2483 59.0084C14.1787 58.9958 16.0265 58.2234 17.3916 56.8583C18.7566 55.4932 19.5291 53.6454 19.5417 51.715C19.5542 49.7845 18.8059 47.9268 17.4587 46.5441ZM5.19206 44.6588C6.11639 43.7076 7.22057 42.9496 8.44041 42.4289C9.66026 41.9083 10.9714 41.6352 12.2977 41.6257C13.624 41.6163 14.939 41.8705 16.1661 42.3737C17.3933 42.8768 18.5082 43.6189 19.4461 44.5568C20.3839 45.4946 21.126 46.6095 21.6292 47.8367C22.1323 49.0639 22.3866 50.3788 22.3771 51.7051C22.3676 53.0314 22.0946 54.3426 21.5739 55.5624C21.0532 56.7822 20.2952 57.8864 19.3441 58.8108C17.4583 60.6433 14.9271 61.66 12.2977 61.6412C9.6683 61.6224 7.15193 60.5695 5.2926 58.7102C3.43328 56.8509 2.3804 54.3345 2.36158 51.7051C2.34277 49.0757 3.35953 46.5445 5.19206 44.6588Z" fill="#262522"/>
<path fill-rule="evenodd" clip-rule="evenodd" d="M11.8772 52.1254C11.7736 52.0218 11.7154 51.8812 11.7154 51.7347C11.7154 51.5882 11.7736 51.4477 11.8772 51.344C11.9808 51.2404 12.1213 51.1822 12.2679 51.1822C12.4144 51.1822 12.5549 51.2404 12.6585 51.344C12.7098 51.3953 12.7505 51.4562 12.7783 51.5233C12.8061 51.5903 12.8204 51.6622 12.8204 51.7347C12.8204 51.8073 12.8061 51.8791 12.7783 51.9461C12.7505 52.0132 12.7098 52.0741 12.6585 52.1254C12.6072 52.1767 12.5463 52.2174 12.4793 52.2451C12.4123 52.2729 12.3404 52.2872 12.2679 52.2872C12.1953 52.2872 12.1235 52.2729 12.0564 52.2451C11.9894 52.2174 11.9285 52.1767 11.8772 52.1254ZM9.99187 49.4587C9.69298 49.7576 9.45589 50.1124 9.29413 50.5029C9.13238 50.8935 9.04912 51.312 9.04912 51.7347C9.04912 52.1574 9.13238 52.576 9.29413 52.9665C9.45589 53.357 9.69298 53.7118 9.99187 54.0107C10.5955 54.6143 11.4142 54.9535 12.2679 54.9535C12.6906 54.9535 13.1091 54.8702 13.4996 54.7084C13.8902 54.5467 14.245 54.3096 14.5439 54.0107C15.1475 53.4071 15.4866 52.5884 15.4866 51.7347C15.4866 50.881 15.1475 50.0623 14.5439 49.4587C13.9402 48.8551 13.1215 48.516 12.2679 48.516C11.4142 48.516 10.5955 48.8551 9.99187 49.4587ZM40.8185 1.33338C41.0053 1.32357 41.192 1.35317 41.3666 1.42025C41.5412 1.48732 41.6997 1.59037 41.8319 1.72271L47.9652 7.85604C48.0993 7.98964 48.2035 8.15027 48.2707 8.32724C48.3379 8.50421 48.3667 8.69347 48.3551 8.88242C48.3435 9.07137 48.2918 9.25568 48.2034 9.4231C48.115 9.59052 47.992 9.73719 47.8425 9.85338L38.7732 16.9067L17.4079 44.3734C17.3019 44.5159 17.1686 44.6358 17.0157 44.726C16.8628 44.8163 16.6934 44.8751 16.5174 44.899C16.3415 44.9229 16.1625 44.9115 15.9911 44.8653C15.8196 44.8191 15.6591 44.7391 15.519 44.6301C15.3789 44.521 15.2619 44.3851 15.1751 44.2302C15.0882 44.0754 15.0331 43.9047 15.0131 43.7283C14.993 43.5519 15.0084 43.3732 15.0584 43.2028C15.1083 43.0324 15.1918 42.8737 15.3039 42.736L36.7705 15.136C36.8389 15.0493 36.9177 14.9714 37.0052 14.904L45.0132 8.67471L40.9945 4.65604L7.17054 46.44C7.06023 46.5761 6.9242 46.6891 6.77022 46.7726C6.61625 46.856 6.44733 46.9084 6.27313 46.9266C5.92131 46.9633 5.5693 46.8588 5.29454 46.636C5.01977 46.4133 4.84476 46.0905 4.80801 45.7386C4.77125 45.3868 4.87576 45.0348 5.09854 44.76L39.8532 1.82671C39.9708 1.68195 40.1175 1.56348 40.2838 1.47896C40.4501 1.39444 40.6323 1.34309 40.8185 1.33338ZM62.6665 23.1814C62.6763 22.9946 62.6467 22.8079 62.5797 22.6333C62.5126 22.4587 62.4095 22.3002 62.2772 22.168L56.1439 16.0347C56.0101 15.9007 55.8493 15.7968 55.6722 15.7298C55.4952 15.6628 55.3059 15.6343 55.1169 15.6461C54.9279 15.658 54.7437 15.71 54.5764 15.7986C54.409 15.8872 54.2625 16.0104 54.1465 16.16L47.0932 25.2267L19.6265 46.592C19.3472 46.8092 19.1655 47.1284 19.1215 47.4794C19.0775 47.8305 19.1747 48.1847 19.3919 48.464C19.609 48.7434 19.9282 48.9251 20.2793 48.9691C20.6303 49.0131 20.9845 48.9158 21.2639 48.6987L48.8639 27.232C48.9505 27.1636 49.0285 27.0848 49.0959 26.9974L55.3252 18.9894L59.3439 23.008L17.5599 56.8267C17.2848 57.0495 17.1094 57.3724 17.0724 57.7245C17.0354 58.0766 17.1398 58.4289 17.3625 58.704C17.5853 58.9792 17.9083 59.1545 18.2603 59.1915C18.6124 59.2285 18.9648 59.1242 19.2399 58.9014L62.1732 24.144C62.318 24.0264 62.4364 23.8797 62.521 23.7134C62.6055 23.5472 62.6542 23.365 62.6639 23.1787L62.6665 23.1814Z" fill="#262522"/>
<path fill-rule="evenodd" clip-rule="evenodd" d="M32.3893 11.056C32.5131 10.9319 32.6603 10.8333 32.8223 10.7661C32.9842 10.6989 33.1579 10.6643 33.3333 10.6643C33.5087 10.6643 33.6823 10.6989 33.8443 10.7661C34.0063 10.8333 34.1534 10.9319 34.2773 11.056L38.2773 15.056C38.4012 15.18 38.4996 15.3272 38.5667 15.4891C38.6338 15.6511 38.6683 15.8247 38.6683 16C38.6683 16.1753 38.6338 16.3489 38.5667 16.5109C38.4996 16.6729 38.4012 16.8201 38.2773 16.944C38.1533 17.068 38.0061 17.1663 37.8442 17.2334C37.6822 17.3005 37.5086 17.335 37.3333 17.335C37.158 17.335 36.9844 17.3005 36.8224 17.2334C36.6604 17.1663 36.5132 17.068 36.3893 16.944L32.3893 12.944C32.2651 12.8202 32.1666 12.673 32.0994 12.511C32.0322 12.3491 31.9976 12.1754 31.9976 12C31.9976 11.8246 32.0322 11.651 32.0994 11.489C32.1666 11.327 32.2651 11.1799 32.3893 11.056ZM47.0559 25.7227C47.1798 25.5985 47.3269 25.5 47.4889 25.4328C47.6509 25.3656 47.8246 25.331 47.9999 25.331C48.1753 25.331 48.349 25.3656 48.511 25.4328C48.673 25.5 48.8201 25.5985 48.9439 25.7227L52.9439 29.7227C53.1943 29.9731 53.335 30.3126 53.335 30.6667C53.335 31.0208 53.1943 31.3603 52.9439 31.6107C52.6936 31.8611 52.354 32.0017 51.9999 32.0017C51.6459 32.0017 51.3063 31.8611 51.0559 31.6107L47.0559 27.6107C46.9318 27.4868 46.8333 27.3397 46.766 27.1777C46.6988 27.0157 46.6642 26.8421 46.6642 26.6667C46.6642 26.4913 46.6988 26.3177 46.766 26.1557C46.8333 25.9937 46.9318 25.8465 47.0559 25.7227Z" fill="#262522"/>
</svg>
